<svg width="120" height="143" viewBox="0 0 120 143" fill="none" xmlns="http://www.w3.org/2000/svg">
<path d="M64.326 84.8978C66.9485 83.8988 69.1534 82.0379 70.579 79.6207L75.3019 71.6122C81.7017 60.7604 98.3325 65.2991 98.3325 77.8975V97.03C98.3325 103.863 92.793 109.403 85.9596 109.403H67.235C53.4966 109.403 49.9919 90.3584 62.8303 85.4676L64.326 84.8978Z" fill="white"/>
<path d="M42.2563 68.6975C42.0786 71.4982 42.8582 74.276 44.4672 76.5753L49.7979 84.1927C57.0212 94.5146 45.9978 107.769 34.5325 102.547L17.1207 94.6172C10.9019 91.785 8.15646 84.4476 10.9887 78.2288L18.7494 61.1883C24.4435 48.6855 43.2279 53.3893 42.3577 67.1001L42.2563 68.6975Z" fill="white"/>
<path d="M65.589 60.5929C63.4105 58.8239 60.6954 57.8479 57.8892 57.8252L48.5921 57.75C35.9942 57.6482 31.59 40.9812 42.4932 34.6694L59.0513 25.0839C64.9652 21.6604 72.5348 23.6792 75.9583 29.5931L85.3394 45.7981C92.2224 57.6879 77.4963 70.2625 66.8315 61.6019L65.589 60.5929Z" fill="white"/>
</svg>
